<?xml version="1.0" encoding="UTF-8"?>
<svg xmlns="http://www.w3.org/2000/svg" viewBox="0 0 230 107.73">
    <defs>
        <clipPath id="a">
            <path fill="none" d="M0 0h230v107.73H0z"></path>
        </clipPath>
    </defs>
    <path fill="#fff" d="M0 0h230v107.73H0z"></path>
    <g clip-path="url(#a)" transform="translate(0 0)">
        <path fill="#3a4a54"
            d="M10.7 47.15c-4.44 0-7.82-.95-10.7-3.87l3.7-3.71c1.86 1.85 4.37 2.47 7.1 2.47 3.37 0 5.18-1.28 5.18-3.63a3.27 3.27 0 0 0-.9-2.47 4.37 4.37 0 0 0-2.6-1.03l-3.54-.5A9.95 9.95 0 0 1 3.25 32a7.75 7.75 0 0 1-2.1-5.77c0-5.23 3.88-8.9 10.22-8.9 4.04 0 6.96 1 9.47 3.42l-3.62 3.58a8.16 8.16 0 0 0-6.02-2c-3.05 0-4.53 1.68-4.53 3.7a2.83 2.83 0 0 0 .86 2.1 5.04 5.04 0 0 0 2.72 1.15l3.46.5a9.7 9.7 0 0 1 5.6 2.26 8.21 8.21 0 0 1 2.27 6.22c0 5.69-4.74 8.9-10.88 8.9m27.48-24.48V46.9h-5.72V22.68H24.8v-5.1h21.04v5.1Zm22.65 24.46c-6 0-10.79-4.07-10.79-10.3V17.57h5.73v19.07c0 3.38 1.97 5.4 5.06 5.4s5.11-2.01 5.11-5.4V17.57h5.68v19.28c0 6.22-4.77 10.3-10.79 10.3m35.51-3.05a10.68 10.68 0 0 1-7.74 2.8H78V17.57h10.6a10.68 10.68 0 0 1 7.74 2.8c3.3 3.3 2.97 7.34 2.97 11.74s.32 8.7-2.97 11.99m-4-19.6a5.11 5.11 0 0 0-4.28-1.82h-4.33V41.8h4.33a5.11 5.11 0 0 0 4.28-1.8c1.07-1.33 1.24-3.43 1.24-7.88s-.17-6.3-1.24-7.62m12.81-6.93h5.72V46.9h-5.72zm22.9 29.57c-6.01 0-10.79-4.07-10.79-10.3V17.57H123v19.07c0 3.38 1.97 5.4 5.06 5.4s5.11-2.01 5.11-5.4V17.57h5.68v19.28c0 6.22-4.77 10.3-10.79 10.3m38.01-.25V29.8l-5.6 11.13h-3.87l-5.64-11.12V46.9h-5.73V17.57h5.64l7.66 15.86 7.62-15.86h5.65V46.9Z">
        </path>
        <path fill="#7dad14"
            d="M116.27 69.4h-5.32v10.42h-5.4V52.15h10.73c5.7 0 9.13 3.92 9.13 8.62s-3.42 8.63-9.13 8.63M116 56.96h-5.05v7.59H116a3.8 3.8 0 1 0 0-7.58m13.95 22.85V52.15h5.4V75h12.56v4.82Zm31.64.23c-5.68 0-10.19-3.85-10.19-9.71v-18.2h5.4v18c0 3.2 1.87 5.1 4.78 5.1s4.82-1.9 4.82-5.1v-18h5.37v18.2c0 5.86-4.51 9.7-10.18 9.7m23.81.01c-4.2 0-7.38-.9-10.1-3.65l3.5-3.5a9.06 9.06 0 0 0 6.7 2.33c3.18 0 4.9-1.2 4.9-3.42a3.08 3.08 0 0 0-.86-2.33 4.12 4.12 0 0 0-2.45-.97l-3.34-.47a9.38 9.38 0 0 1-5.37-2.3 7.31 7.31 0 0 1-1.98-5.43c0-4.94 3.66-8.4 9.64-8.4 3.8 0 6.57.94 8.94 3.23l-3.42 3.38a7.7 7.7 0 0 0-5.68-1.9c-2.87 0-4.27 1.6-4.27 3.5a2.67 2.67 0 0 0 .82 1.98 4.76 4.76 0 0 0 2.56 1.1l3.26.46a9.15 9.15 0 0 1 5.29 2.14 7.75 7.75 0 0 1 2.14 5.86c0 5.37-4.47 8.4-10.26 8.4">
        </path>
        <path fill="#3a4a54"
            d="M218.28 17.59H230v11.73h-11.72zM200.69 0h11.72v11.73h-11.72zm0 35.18h11.72V46.9h-11.72z"></path>
        <path fill="#7dad14" d="M200.69 17.59h11.72v11.73h-11.72z"></path>
        <path fill="#3a4a54"
            d="M183.1 17.59h11.72v11.73H183.1zM6.46 106.62a2.96 2.96 0 0 1-2.34.96H.98V93.94h3.14a2.96 2.96 0 0 1 2.34.96c.88.94.98 2.16.98 5.86s-.1 4.92-.98 5.86M5.24 95.93a1.44 1.44 0 0 0-1.17-.52H2.63v10.7h1.44a1.44 1.44 0 0 0 1.16-.53c.52-.63.56-1.68.56-4.82s-.04-4.2-.56-4.83m16.52 10.9a3.17 3.17 0 0 1-2.28.9 3.12 3.12 0 0 1-2.26-.9 3.24 3.24 0 0 1-.88-2.36V93.94h1.64v10.63a1.51 1.51 0 1 0 3.01 0V93.94h1.65v10.53a3.24 3.24 0 0 1-.88 2.36m15.15.75-.65-3.22h-3.16l-.65 3.22H30.7l3.18-13.64h1.6l3.15 13.64Zm-2.22-10.97-1.28 6.28h2.54Zm12.16 10.97V93.94h1.65v12.16h3.62v1.48Zm13.79 0V93.94h5.27v1.47h-3.62V100h3.12v1.48h-3.12v4.63h3.62v1.48Zm19.31-.69a3.38 3.38 0 0 1-2.41.82 3.26 3.26 0 0 1-2.4-.82 3.64 3.64 0 0 1-.84-2.88h1.65a2.37 2.37 0 0 0 .46 1.78 1.75 1.75 0 0 0 2.3-.01 2.51 2.51 0 0 0 .44-1.82c0-1.58-.23-2.05-1.34-2.51l-1.55-.64c-1.4-.57-1.86-1.34-1.86-3.4a3.67 3.67 0 0 1 1.03-2.8 3.09 3.09 0 0 1 2.17-.79 3.14 3.14 0 0 1 2.26.79 3.59 3.59 0 0 1 .9 2.8H79.1a2.4 2.4 0 0 0-.42-1.65 1.34 1.34 0 0 0-1.11-.46 1.38 1.38 0 0 0-1.06.42 2.4 2.4 0 0 0-.47 1.63c0 1.34.2 1.74 1.3 2.2l1.53.63c1.55.63 1.91 1.59 1.91 3.73a3.89 3.89 0 0 1-.84 2.97m25.39.01a3.38 3.38 0 0 1-2.42.82 3.26 3.26 0 0 1-2.4-.82 3.64 3.64 0 0 1-.84-2.88h1.65a2.37 2.37 0 0 0 .46 1.78 1.75 1.75 0 0 0 2.3-.01 2.51 2.51 0 0 0 .44-1.82c0-1.58-.23-2.05-1.34-2.51l-1.55-.64c-1.4-.57-1.86-1.34-1.86-3.4a3.67 3.67 0 0 1 1.04-2.8 3.09 3.09 0 0 1 2.16-.79 3.14 3.14 0 0 1 2.26.79 3.59 3.59 0 0 1 .9 2.8h-1.65a2.41 2.41 0 0 0-.42-1.65 1.34 1.34 0 0 0-1.1-.46 1.38 1.38 0 0 0-1.06.42 2.4 2.4 0 0 0-.48 1.63c0 1.34.21 1.74 1.3 2.2l1.53.63c1.55.63 1.92 1.59 1.92 3.73a3.89 3.89 0 0 1-.85 2.97m12.8-11.47v12.17h-1.64V95.41h-2.3v-1.47h6.22v1.47Zm16.09 11.42a3.17 3.17 0 0 1-2.27.9 3.12 3.12 0 0 1-2.26-.9 3.24 3.24 0 0 1-.89-2.36V93.94h1.65v10.63a1.51 1.51 0 1 0 3.01 0V93.94h1.65v10.53a3.24 3.24 0 0 1-.88 2.36m15.57-.21a2.96 2.96 0 0 1-2.34.96h-3.14V93.94h3.14a2.96 2.96 0 0 1 2.34.96c.88.94.98 2.16.98 5.86s-.1 4.92-.98 5.86m-1.22-10.69a1.44 1.44 0 0 0-1.17-.52h-1.44v10.7h1.44a1.44 1.44 0 0 0 1.17-.52c.51-.64.55-1.69.55-4.83s-.04-4.2-.55-4.83m11.2-1.99h1.65v13.64h-1.65zm16.3 12.89a3.17 3.17 0 0 1-2.28.9 3.12 3.12 0 0 1-2.26-.9 3.24 3.24 0 0 1-.88-2.36V93.94h1.65v10.63a1.51 1.51 0 1 0 3 0V93.94h1.65v10.53a3.24 3.24 0 0 1-.88 2.36m17.05.75v-9.71l-2.17 6.38h-1.01l-2.13-6.23v9.56h-1.65V93.94h1.56l2.75 7.58 2.74-7.58h1.55v13.64Z">
        </path>
    </g>
</svg>