<?xml version="1.0" encoding="utf-8"?>
<!-- Generator: Adobe Illustrator 13.0.2, SVG Export Plug-In . SVG Version: 6.00 Build 14948)  -->
<!DOCTYPE svg PUBLIC "-//W3C//DTD SVG 1.1//EN" "http://www.w3.org/Graphics/SVG/1.1/DTD/svg11.dtd">
<svg version="1.1" id="Ebene_1" xmlns="http://www.w3.org/2000/svg" xmlns:xlink="http://www.w3.org/1999/xlink" x="0px" y="0px"
	 width="826.05px" height="274.81px" viewBox="0 0 826.05 274.81" enable-background="new 0 0 826.05 274.81" xml:space="preserve">
<g>
	<rect x="103.512" y="155.255" fill="#84B819" width="34.5" height="34.497"/>
	<rect x="103.512" y="103.503" fill="#84B819" width="34.5" height="34.5"/>
	<rect x="103.512" y="51.755" fill="#84B819" width="34.5" height="34.497"/>
	<rect x="103.512" y="0.004" fill="#84B819" width="34.5" height="34.496"/>
	<rect x="51.765" y="51.755" fill="#84B819" width="34.493" height="34.497"/>
	<rect x="51.765" y="0.004" fill="#84B819" width="34.493" height="34.496"/>
	<rect x="0.009" y="51.755" fill="#84B819" width="34.501" height="34.497"/>
	<rect x="51.765" y="155.255" fill="#84B819" width="34.493" height="34.497"/>
	<rect x="51.765" y="103.503" fill="#84B819" width="34.493" height="34.5"/>
	<rect x="0.009" y="155.255" fill="#84B819" width="34.501" height="34.497"/>
	<rect x="0.009" y="103.503" fill="#84B819" width="34.501" height="34.5"/>
	<polygon fill="#84B819" points="365.995,34.5 365.995,189.761 327.521,189.761 327.521,34.5 276.027,34.5 276.027,0 417.488,0 
		417.488,34.5 	"/>
	<polygon fill="#84B819" points="565.816,189.761 565.816,110.461 499.097,110.461 499.097,189.761 460.63,189.761 460.63,0 
		499.097,0 499.097,76.395 565.816,76.395 565.816,0 604.3,0 604.3,189.761 	"/>
	<polygon fill="#84B819" points="787.509,189.761 787.509,82.232 750.732,155.243 722.919,155.25 685.906,82.232 685.906,189.761 
		647.423,189.761 647.423,0 685.357,0 736.843,106.602 788.066,0 825.992,0 825.992,189.761 	"/>
	<g>
		<path fill="#4A5C68" d="M826.05,274.343v-41.407h-4.988v28.321l-10.594-28.321h-4.648v41.407h4.988v-28.32l10.711,28.32H826.05z
			 M798.38,274.343v-4.472h-10.992v-14.085h9.479v-4.472h-9.479v-13.907h10.992v-4.472h-15.986v41.407H798.38z M774.894,263.234
			c0-6.509-1.107-9.417-5.809-11.345l-4.656-1.91c-3.314-1.404-3.967-2.621-3.967-6.697c0-2.146,0.467-3.838,1.455-4.953
			c0.711-0.743,1.75-1.268,3.213-1.268c1.564,0,2.67,0.524,3.363,1.395c1.049,1.275,1.285,2.781,1.285,5.005h4.998
			c0-3.779-0.643-6.458-2.732-8.497c-1.564-1.504-3.838-2.383-6.863-2.383c-2.74,0-4.947,0.879-6.57,2.383
			c-2.096,1.928-3.137,4.888-3.137,8.497c0,6.28,1.387,8.599,5.641,10.356l4.709,1.919c3.371,1.394,4.074,2.849,4.074,7.617
			c0,2.738-0.236,4.312-1.346,5.528c-0.752,0.813-1.857,1.336-3.551,1.336c-1.563,0-2.729-0.523-3.43-1.285
			c-1.109-1.157-1.396-2.671-1.396-5.411h-4.996c0,4.431,0.643,6.813,2.563,8.726c1.623,1.633,4.064,2.502,7.26,2.502
			c3.324,0,5.768-0.989,7.34-2.502C774.31,270.276,774.894,267.547,774.894,263.234 M748.443,263.234
			c0-6.509-1.109-9.417-5.828-11.345l-4.648-1.91c-3.322-1.404-3.955-2.621-3.955-6.697c0-2.146,0.463-3.838,1.453-4.953
			c0.701-0.743,1.742-1.268,3.213-1.268c1.564,0,2.664,0.524,3.365,1.395c1.047,1.275,1.275,2.781,1.275,5.005h4.996
			c0-3.779-0.643-6.458-2.721-8.497c-1.582-1.504-3.838-2.383-6.875-2.383c-2.73,0-4.945,0.879-6.576,2.383
			c-2.08,1.928-3.129,4.888-3.129,8.497c0,6.28,1.395,8.599,5.631,10.356l4.717,1.919c3.383,1.394,4.084,2.849,4.084,7.617
			c0,2.738-0.246,4.312-1.344,5.528c-0.76,0.813-1.859,1.336-3.551,1.336c-1.572,0-2.73-0.523-3.434-1.285
			c-1.105-1.157-1.393-2.671-1.393-5.411h-4.998c0,4.431,0.643,6.813,2.553,8.726c1.633,1.633,4.066,2.502,7.271,2.502
			c3.314,0,5.758-0.989,7.33-2.502C747.849,270.276,748.443,267.547,748.443,263.234 M722.353,274.343v-4.472h-10.99v-14.085h9.477
			v-4.472h-9.477v-13.907h10.99v-4.472h-15.988v41.407H722.353z M697.835,274.343v-41.407h-4.998v18.091h-9.188v-18.091h-4.996
			v41.407h4.996v-18.844h9.188v18.844H697.835z M671.763,274.343v-4.472h-10.99v-36.936h-4.996v41.407H671.763z M648.337,274.343
			v-4.472h-10.998v-14.085h9.484v-4.472h-9.484v-13.907h10.998v-4.472h-15.986v41.407H648.337z M625.476,237.407v-4.472h-18.895
			v4.472h6.982v36.936h4.998v-36.936H625.476z M600.976,237.407v-4.472h-18.904v4.472h6.984v36.936h4.996v-36.936H600.976z
			 M575.208,232.936h-4.988v41.407h4.988V232.936z M561.894,274.343v-41.407h-4.709l-8.32,23.029l-8.377-23.029h-4.701v41.407h4.998
			v-29.015l6.459,18.888h3.074l6.588-19.352v29.479H561.894z M515.421,274.343v-4.472h-11v-14.085h9.479v-4.472h-9.479v-13.907h11
			v-4.472h-15.986v41.407H515.421z M492.544,274.343v-4.472h-10.99v-36.936h-4.996v41.407H492.544z M468.23,264.927v-31.991h-5.006
			v32.278c0,3.254-2.096,5.121-4.598,5.121c-2.504,0-4.539-1.867-4.539-5.121v-32.278h-4.988v31.991
			c0,3.034,0.973,5.461,2.672,7.151c1.799,1.802,4.184,2.731,6.855,2.731c2.688,0,5.123-0.93,6.924-2.731
			C467.232,270.388,468.23,267.961,468.23,264.927 M440.763,274.343v-41.407h-4.996v18.091h-9.191v-18.091h-5.004v41.407h5.004
			v-18.844h9.191v18.844H440.763z M414.539,264.105h-4.947c-0.05,1.751-0.405,3.56-1.335,4.776
			c-0.634,0.813-1.682,1.453-3.264,1.453c-1.623,0-2.729-0.641-3.433-1.57c-1.453-1.98-1.69-5.293-1.69-15.126
			c0-9.831,0.237-13.145,1.69-15.132c0.703-0.921,1.81-1.563,3.433-1.563c1.582,0,2.629,0.643,3.264,1.453
			c0.989,1.218,1.285,2.968,1.335,4.71h4.947c-0.059-3.375-1.049-6.332-2.969-8.201c-1.631-1.564-3.651-2.428-6.577-2.428
			c-3.254,0-5.52,1.209-7.092,3.011c-2.731,3.146-3.026,6.696-3.026,18.15c0,11.464,0.294,15.007,3.026,18.151
			c1.573,1.793,3.838,3.02,7.092,3.02c2.74,0,4.786-0.821,6.4-2.274C413.43,270.69,414.48,267.606,414.539,264.105 M388.542,263.234
			c0-6.509-1.108-9.417-5.809-11.345l-4.667-1.91c-3.305-1.404-3.956-2.621-3.956-6.697c0-2.146,0.464-3.838,1.453-4.953
			c0.703-0.743,1.751-1.268,3.204-1.268c1.564,0,2.681,0.524,3.374,1.395c1.048,1.275,1.285,2.781,1.285,5.005h4.995
			c0-3.779-0.643-6.458-2.729-8.497c-1.573-1.504-3.838-2.383-6.866-2.383c-2.739,0-4.945,0.879-6.577,2.383
			c-2.089,1.928-3.137,4.888-3.137,8.497c0,6.28,1.396,8.599,5.648,10.356l4.708,1.919c3.374,1.394,4.067,2.849,4.067,7.617
			c0,2.738-0.237,4.312-1.335,5.528c-0.752,0.813-1.869,1.336-3.551,1.336c-1.573,0-2.731-0.523-3.433-1.285
			c-1.106-1.157-1.403-2.671-1.403-5.411h-4.997c0,4.431,0.651,6.813,2.553,8.726c1.64,1.633,4.084,2.502,7.28,2.502
			c3.322,0,5.757-0.989,7.33-2.502C387.95,270.276,388.542,267.547,388.542,263.234 M361.472,274.343v-41.407h-4.997v18.091h-9.197
			v-18.091h-4.988v41.407h4.988v-18.844h9.197v18.844H361.472z M334.934,264.105h-4.928c-0.067,1.751-0.423,3.56-1.344,4.776
			c-0.643,0.813-1.692,1.453-3.263,1.453c-1.633,0-2.74-0.641-3.441-1.57c-1.446-1.98-1.673-5.293-1.673-15.126
			c0-9.831,0.227-13.145,1.673-15.132c0.702-0.921,1.808-1.563,3.441-1.563c1.571,0,2.621,0.643,3.263,1.453
			c0.989,1.218,1.277,2.968,1.344,4.71h4.928c-0.059-3.375-1.048-6.332-2.967-8.201c-1.623-1.564-3.653-2.428-6.568-2.428
			c-3.256,0-5.521,1.209-7.103,3.011c-2.721,3.146-3.008,6.696-3.008,18.15c0,11.464,0.287,15.007,3.008,18.151
			c1.582,1.793,3.847,3.02,7.103,3.02c2.73,0,4.767-0.821,6.398-2.274C333.827,270.69,334.875,267.606,334.934,264.105
			 M303.165,253.639c0,9.833-0.288,13.146-1.751,15.126c-0.693,0.93-1.741,1.57-3.372,1.57c-1.632,0-2.731-0.641-3.433-1.57
			c-1.455-1.98-1.682-5.293-1.682-15.126c0-9.831,0.227-13.145,1.682-15.132c0.702-0.921,1.801-1.563,3.433-1.563
			c1.631,0,2.679,0.643,3.372,1.563C302.877,240.494,303.165,243.808,303.165,253.639 M308.16,253.639
			c0-11.454-0.347-15.183-3.018-18.15c-1.623-1.802-3.838-3.011-7.101-3.011c-3.256,0-5.47,1.209-7.095,3.011
			c-2.67,2.968-3.017,6.696-3.017,18.15c0,11.464,0.347,15.185,3.017,18.151c1.625,1.793,3.838,3.02,7.095,3.02
			c3.263,0,5.479-1.227,7.101-3.02C307.813,268.823,308.16,265.103,308.16,253.639 M280.355,274.343v-41.407h-4.988v18.091h-9.19
			v-18.091h-5.004v41.407h5.004v-18.844h9.19v18.844H280.355z M240.806,274.343v-4.472h-10.99v-14.085h9.478v-4.472h-9.478v-13.907
			h10.99v-4.472h-15.978v41.407H240.806z M216.289,274.343v-41.407h-4.995v18.091h-9.19v-18.091h-4.997v41.407h4.997v-18.844h9.19
			v18.844H216.289z M190.066,264.105h-4.938c-0.059,1.751-0.405,3.56-1.335,4.776c-0.651,0.813-1.699,1.453-3.263,1.453
			c-1.623,0-2.731-0.641-3.433-1.57c-1.453-1.98-1.69-5.293-1.69-15.126c0-9.831,0.237-13.145,1.69-15.132
			c0.702-0.921,1.81-1.563,3.433-1.563c1.564,0,2.612,0.643,3.263,1.453c0.98,1.218,1.276,2.968,1.335,4.71h4.938
			c-0.061-3.375-1.041-6.332-2.969-8.201c-1.623-1.564-3.66-2.428-6.568-2.428c-3.263,0-5.529,1.209-7.093,3.011
			c-2.731,3.146-3.019,6.696-3.019,18.15c0,11.464,0.288,15.007,3.019,18.151c1.564,1.793,3.83,3.02,7.093,3.02
			c2.738,0,4.768-0.821,6.4-2.274C188.966,270.69,190.005,267.606,190.066,264.105 M164.069,263.234c0-6.509-1.1-9.417-5.818-11.345
			l-4.648-1.91c-3.322-1.404-3.956-2.621-3.956-6.697c0-2.146,0.464-3.838,1.453-4.953c0.693-0.743,1.742-1.268,3.196-1.268
			c1.581,0,2.679,0.524,3.381,1.395c1.049,1.275,1.278,2.781,1.278,5.005h4.995c0-3.779-0.643-6.458-2.73-8.497
			c-1.564-1.504-3.838-2.383-6.866-2.383c-2.738,0-4.945,0.879-6.577,2.383c-2.08,1.928-3.128,4.888-3.128,8.497
			c0,6.28,1.395,8.599,5.631,10.356l4.716,1.919c3.374,1.394,4.076,2.849,4.076,7.617c0,2.738-0.237,4.312-1.335,5.528
			c-0.762,0.813-1.86,1.336-3.56,1.336c-1.564,0-2.74-0.523-3.433-1.285c-1.098-1.157-1.395-2.671-1.395-5.411h-4.997
			c0,4.431,0.643,6.813,2.562,8.726c1.614,1.633,4.067,2.502,7.262,2.502c3.313,0,5.766-0.989,7.33-2.502
			C163.486,270.276,164.069,267.547,164.069,263.234 M137,232.936h-4.988v41.407H137V232.936z M122.813,274.343v-41.407h-4.996
			v28.321l-10.593-28.321h-4.642v41.407h4.988v-28.32l10.711,28.32H122.813z M94.043,274.343v-41.407h-4.979v18.091h-9.206v-18.091
			h-4.996v41.407h4.996v-18.844h9.206v18.844H94.043z M67.514,264.105h-4.937c-0.059,1.751-0.405,3.56-1.344,4.776
			c-0.634,0.813-1.682,1.453-3.263,1.453c-1.623,0-2.722-0.641-3.424-1.57c-1.454-1.98-1.69-5.293-1.69-15.126
			c0-9.831,0.236-13.145,1.69-15.132c0.703-0.921,1.801-1.563,3.424-1.563c1.582,0,2.629,0.643,3.263,1.453
			c0.989,1.218,1.285,2.968,1.344,4.71h4.937c-0.059-3.375-1.048-6.332-2.958-8.201c-1.631-1.564-3.678-2.428-6.586-2.428
			c-3.254,0-5.52,1.209-7.084,3.011c-2.731,3.146-3.027,6.696-3.027,18.15c0,11.464,0.295,15.007,3.027,18.151
			c1.564,1.793,3.83,3.02,7.084,3.02c2.739,0,4.785-0.821,6.409-2.274C66.407,270.69,67.455,267.606,67.514,264.105 M41.738,274.343
			v-4.472H30.756v-14.085h9.477v-4.472h-9.477v-13.907h10.982v-4.472H25.76v41.407H41.738z M18.895,237.407v-4.472H0v4.472h6.975
			v36.936h4.996v-36.936H18.895z"/>
		<rect x="204.759" fill="#4A5C68" width="4.625" height="189.752"/>
	</g>
</g>
</svg>
